<svg width="50" height="50" viewBox="0 0 50 50" fill="none" xmlns="http://www.w3.org/2000/svg">
<path d="M25.3333 22.6458C25.125 22.625 24.875 22.625 24.6458 22.6458C19.6875 22.4791 15.75 18.4166 15.75 13.4166C15.75 8.31246 19.875 4.16663 25 4.16663C30.1042 4.16663 34.25 8.31246 34.25 13.4166C34.2292 18.4166 30.2917 22.4791 25.3333 22.6458Z" stroke="#121212" stroke-width="1.37086" stroke-linecap="round" stroke-linejoin="round"/>
<path d="M14.9167 30.3334C9.87501 33.7084 9.87501 39.2084 14.9167 42.5625C20.6458 46.3959 30.0417 46.3959 35.7708 42.5625C40.8125 39.1875 40.8125 33.6875 35.7708 30.3334C30.0625 26.5209 20.6667 26.5209 14.9167 30.3334Z" stroke="#121212" stroke-width="1.37086" stroke-linecap="round" stroke-linejoin="round"/>
</svg>
