<svg width="240" height="60" viewBox="0 0 240 60" fill="none" xmlns="http://www.w3.org/2000/svg">
<path d="M55.993 1.57823C55.8864 1.75817 55.6131 2.15136 55.3932 2.46458C55.1666 2.7778 54.7334 3.40424 54.4135 3.86408C54.1003 4.32392 53.6738 4.93703 53.4672 5.23026C53.2606 5.52349 52.9607 5.95 52.8075 6.18325C52.6475 6.40984 52.3809 6.7897 52.2143 7.02962C51.4879 8.06925 51.2613 8.40913 50.7682 9.12887C50.475 9.54872 50.0751 10.1352 49.8685 10.4284C49.6619 10.7216 49.3687 11.1415 49.2154 11.3614C49.0621 11.5813 48.8022 11.9545 48.6423 12.1944C48.3291 12.6409 47.8692 13.3074 47.1295 14.3937C46.8896 14.7402 46.5697 15.2067 46.4164 15.4266C46.2631 15.6465 46.0032 16.0197 45.8366 16.2597C45.6767 16.4996 45.3035 17.0394 45.0169 17.4592C44.7237 17.8791 44.3305 18.4522 44.1439 18.7254C43.9506 18.9987 43.5641 19.5518 43.2908 19.9583C43.0109 20.3582 42.6444 20.898 42.4645 21.1579C42.0046 21.8243 41.3382 22.7973 40.885 23.4571C40.6718 23.7703 40.3652 24.2168 40.1986 24.4567C40.032 24.6966 39.6788 25.2031 39.4189 25.5897C38.8858 26.3694 38.3793 27.1025 37.7262 28.0554C37.4863 28.402 37.1597 28.8818 36.9998 29.1217C36.8332 29.3616 36.6466 29.6282 36.5799 29.7149C36.4 29.9414 36.42 30.0214 36.7399 30.5346C36.8931 30.7878 37.0531 31.0477 37.0864 31.1077C37.193 31.2876 37.5062 31.7741 37.9128 32.3872C38.1127 32.7005 38.3126 33.007 38.3526 33.067C38.4726 33.2736 38.9857 34.0733 39.3189 34.5864C39.6122 35.0396 40.0653 35.746 40.2719 36.0793C40.3186 36.1526 40.4785 36.4058 40.6385 36.6391C40.7917 36.8723 40.9184 37.0722 40.9184 37.0856C40.9184 37.0989 41.045 37.2988 41.2049 37.5321C41.3582 37.7653 41.5181 38.0186 41.5648 38.0919C41.6114 38.1585 41.7714 38.4251 41.9313 38.6717C42.0913 38.9182 42.2512 39.1781 42.2845 39.2381C42.3845 39.4047 43.2442 40.7243 43.3775 40.9175C43.4441 41.0108 43.5108 41.1308 43.5374 41.1841C43.5641 41.2374 43.7307 41.5106 43.9106 41.7839C44.0972 42.0571 44.3705 42.4903 44.5304 42.7369C44.6903 42.9901 44.8636 43.2634 44.9169 43.35C44.9703 43.4366 45.1502 43.7232 45.3168 43.9831C45.4834 44.243 45.6633 44.5296 45.7167 44.6095C45.8699 44.8495 46.4031 45.7025 46.5364 45.9224C46.5963 46.0357 46.6363 46.1557 46.6163 46.189C46.5697 46.2623 41.4582 46.2689 38.5325 46.2023L36.5799 46.1623L36.0001 45.2027C35.6802 44.6762 35.367 44.163 35.307 44.0631C35.2404 43.9631 35.1604 43.8232 35.1204 43.7498C35.0804 43.6765 34.9938 43.5233 34.9205 43.4166C34.8472 43.3033 34.7606 43.1567 34.7206 43.0834C34.6806 43.0101 34.6006 42.8702 34.534 42.7702C34.474 42.6769 34.1541 42.1571 33.8209 41.6173C33.4943 41.0841 33.1745 40.571 33.1211 40.4843C33.0678 40.3977 32.7946 39.9645 32.5214 39.518C32.2481 39.0715 31.9749 38.6383 31.9216 38.5517C31.8683 38.4651 31.6883 38.1785 31.5217 37.9186C31.3551 37.6587 31.1685 37.3655 31.1085 37.2655C31.0419 37.1655 30.9686 37.0389 30.9419 36.9856C30.9153 36.9323 30.7686 36.699 30.6087 36.4658C30.4488 36.2325 30.3221 36.0326 30.3221 36.0193C30.3221 35.9526 29.9689 35.4795 29.889 35.4395C29.829 35.3995 29.749 35.4861 29.6357 35.706C29.5424 35.886 29.4025 36.1459 29.3225 36.2925C29.2359 36.4325 29.0226 36.839 28.836 37.1855C28.6561 37.5321 28.3895 38.0252 28.2562 38.2851C26.7567 41.1108 26.3569 41.8905 24.9174 44.7628C24.2177 46.1623 23.6645 47.3419 23.6912 47.3819C23.8045 47.5618 23.9444 47.4085 25.044 45.8358C25.2173 45.5892 25.5172 45.156 25.7171 44.8761C26.2436 44.123 27.2366 42.6569 28.5761 40.6376C29.2225 39.658 29.789 38.8583 29.829 38.8583C29.8756 38.8516 29.9223 38.9049 29.9423 38.9649C29.9689 39.0315 30.1289 39.3514 30.3155 39.6846C30.4954 40.0112 30.7487 40.4777 30.8686 40.7176C31.3751 41.6706 31.715 42.3104 31.9549 42.7502C32.0948 43.0101 32.3281 43.4433 32.4747 43.7165C32.7679 44.2563 33.0278 44.7495 33.3277 45.296C33.4344 45.4892 33.6076 45.8091 33.7143 45.9957C33.9209 46.3822 34.2607 46.9954 34.494 47.4152C34.5806 47.5618 34.7272 47.8351 34.8272 48.0217C34.9272 48.2083 35.0605 48.4282 35.1204 48.5148L35.2337 48.6681L43.0176 48.5948C47.7359 48.5548 50.8215 48.5015 50.8615 48.4615C50.9015 48.4215 50.7682 48.1816 50.5083 47.8084C50.0284 47.122 49.6486 46.5755 48.9422 45.5492C48.6689 45.1427 48.2824 44.5895 48.0891 44.3163C47.8959 44.0431 47.536 43.5166 47.2828 43.1501C46.8096 42.457 46.3031 41.7306 45.79 40.9842C45.63 40.7443 45.2701 40.2311 45.0036 39.8379C44.737 39.4381 44.2838 38.7783 44.0039 38.3718C43.2775 37.3055 42.6444 36.3791 41.838 35.1862C41.0383 34 40.2919 32.907 39.7921 32.1873C38.4392 30.228 38.2993 29.9881 38.3993 29.8681C38.4526 29.8082 38.5192 29.7082 38.5459 29.6549C38.5659 29.6016 38.7391 29.3283 38.9191 29.0551C39.099 28.7819 39.3722 28.3487 39.5322 28.0954C39.6921 27.8422 39.8654 27.569 39.9187 27.489C39.972 27.409 40.1453 27.1358 40.3052 26.8825C40.4652 26.6293 40.7384 26.1961 40.9184 25.9229C41.0983 25.6496 41.3715 25.2165 41.5315 24.9699C41.6914 24.7166 41.8647 24.4434 41.918 24.3568C41.9713 24.2701 42.1446 23.9969 42.3045 23.7437C42.4645 23.4971 42.7844 22.9906 43.0176 22.6241C43.2509 22.2575 43.5707 21.751 43.7307 21.5045C43.8906 21.2512 44.0639 20.978 44.1172 20.898C44.2239 20.7314 44.777 19.8584 44.8836 19.6718C44.9236 19.6118 45.0702 19.3785 45.2168 19.1586C45.3634 18.9387 45.5101 18.7055 45.55 18.6455C45.6234 18.5189 45.9566 17.9924 46.6163 16.9594C46.8496 16.5929 47.2095 16.0197 47.416 15.6932C47.6226 15.36 47.9359 14.8668 48.1225 14.5936C48.3024 14.3204 48.4757 14.0338 48.5157 13.9605C48.5556 13.8872 48.7289 13.6006 48.9088 13.3274C49.2021 12.8875 49.8885 11.8079 50.0818 11.4747C50.1217 11.4147 50.2684 11.1815 50.415 10.9615C50.5616 10.7416 50.7082 10.5084 50.7482 10.4484C50.8482 10.2818 51.5212 9.20218 52.0144 8.42912C52.2477 8.06258 52.6142 7.48279 52.8274 7.14291C53.0407 6.79637 53.2606 6.44983 53.3139 6.36319C53.3673 6.27655 53.5472 5.98999 53.7138 5.73008C53.8804 5.47017 54.0603 5.18361 54.1137 5.09697C54.167 5.01034 54.3869 4.65713 54.6002 4.31725C54.8134 3.97738 55.1333 3.47089 55.3199 3.19765C55.4998 2.92442 55.6731 2.63785 55.7131 2.56454C55.7464 2.49124 55.9263 2.19801 56.1129 1.91145C56.4795 1.33165 56.5061 1.26501 56.3195 1.26501C56.2462 1.26501 56.1196 1.39163 55.993 1.57823Z" fill="#121212"/>
<path d="M24.2521 11.4276C24.2321 11.4409 20.8133 11.4609 16.6548 11.4609C12.4896 11.4676 9.04419 11.4942 8.99754 11.5275C8.90424 11.5875 9.32409 12.2539 10.5303 13.96C10.7636 14.2866 11.1701 14.873 11.43 15.2595C11.6899 15.6461 12.0964 16.2259 12.3297 16.5591C12.5629 16.8856 13.0094 17.5321 13.316 17.9919C13.8358 18.7516 14.2357 19.3447 15.0554 20.5243C15.2153 20.7642 15.6352 21.3774 15.9884 21.8905C16.9814 23.3566 17.7078 24.4296 18.2476 25.2227C18.5275 25.6225 19.054 26.4022 19.4272 26.9554C19.8004 27.5018 20.2402 28.1483 20.4068 28.3882C20.5667 28.6281 20.88 29.0746 21.0932 29.3878C21.3065 29.7011 21.4798 30.0009 21.4798 30.0676C21.4731 30.1276 21.3531 30.3475 21.2065 30.5674C20.9799 30.9073 20.7267 31.2872 20.4934 31.6604C20.4601 31.7203 20.2935 31.9869 20.1269 32.2468C19.9603 32.5134 19.7937 32.78 19.7604 32.8399C19.7204 32.8999 19.5738 33.1332 19.4205 33.3531C19.2739 33.5797 19.1339 33.7996 19.1073 33.8529C19.0806 33.9062 18.914 34.1795 18.7341 34.4527C18.5475 34.7259 18.2742 35.1591 18.1143 35.4057C17.9543 35.6589 17.7811 35.9322 17.7278 36.0188C17.6744 36.1054 17.4945 36.392 17.3279 36.6519C17.1613 36.9118 16.9814 37.1984 16.928 37.285C16.8747 37.3717 16.7015 37.6449 16.5415 37.8981C16.3816 38.1447 16.0617 38.6512 15.8284 39.0177C15.5952 39.3843 15.2753 39.8908 15.1154 40.1373C14.9554 40.3906 14.7755 40.6705 14.7155 40.7704C14.6489 40.8704 14.5756 40.997 14.5489 41.0503C14.5156 41.1037 14.2956 41.4502 14.0557 41.8167C13.8158 42.1833 13.5293 42.6298 13.4226 42.803C13.316 42.983 13.1827 43.1962 13.1294 43.2829C13.0761 43.3695 12.9028 43.6427 12.7429 43.896C12.5829 44.1426 12.263 44.6491 12.0298 45.0156C11.7965 45.3821 11.4767 45.8886 11.3167 46.1352C11.1568 46.3884 10.9768 46.6683 10.9169 46.7683C10.8502 46.8683 10.7769 46.9949 10.7502 47.0482C10.7236 47.1015 10.5836 47.3281 10.437 47.548C10.2837 47.7746 10.1305 48.0145 10.0838 48.0878C9.88389 48.4144 9.21746 49.4807 8.83093 50.0805C8.59768 50.447 8.23115 51.0268 8.01789 51.3667C7.59804 52.0398 7.57805 52.0731 7.13154 52.7795C6.96493 53.0394 6.79166 53.3193 6.74501 53.3993C6.69836 53.4792 6.46511 53.8458 6.23186 54.2123C5.99861 54.5788 5.63207 55.1586 5.41882 55.4985C5.20556 55.8384 4.98564 56.1916 4.93232 56.2782C3.64611 58.3175 3.39954 58.7174 3.39954 58.784C3.39954 58.8173 3.45285 58.844 3.52616 58.844C3.59946 58.844 3.72609 58.7174 3.85271 58.5241C3.95934 58.3508 4.19925 57.9976 4.37919 57.7444C4.75905 57.2112 5.23222 56.5315 5.6454 55.925C5.97862 55.4452 6.37847 54.8654 6.83165 54.2123C7.01158 53.9524 7.29148 53.5525 7.45809 53.3126C7.61803 53.0727 7.87794 52.6995 8.03122 52.4796C8.60435 51.6532 8.91757 51.2001 9.23079 50.7469C9.40406 50.487 9.68396 50.0938 9.8439 49.8605C10.9568 48.2544 11.2501 47.8279 11.8299 46.9816C12.0898 46.595 12.443 46.0819 12.6162 45.8286C13.1494 45.0689 13.5293 44.5091 14.0291 43.7827C14.289 43.3962 14.6422 42.8897 14.8088 42.6498C14.9687 42.4099 15.2686 41.9767 15.4686 41.6834C16.115 40.7504 16.7481 39.8308 17.028 39.4176C17.1813 39.1977 17.4812 38.7645 17.6944 38.4513C18.1409 37.7982 18.8074 36.8318 19.2939 36.1321C19.4738 35.8655 19.6737 35.5723 19.727 35.4857C19.7804 35.399 19.987 35.0925 20.1869 34.8059C20.3868 34.5193 20.7667 33.9729 21.0266 33.5863C21.2932 33.1998 21.653 32.6733 21.8263 32.4201C22.0062 32.1602 22.3728 31.627 22.6393 31.2338C22.9126 30.834 23.1925 30.4208 23.2724 30.3142C23.3924 30.1542 23.4057 30.0876 23.3524 29.9343C23.2924 29.7744 22.586 28.6481 22.2528 28.1749C22.1862 28.075 22.1262 27.975 22.1262 27.955C22.1262 27.935 22.0662 27.8351 21.9996 27.7351C21.7996 27.4552 20.9599 26.1623 20.9333 26.089C20.92 26.0557 20.78 25.8424 20.6267 25.6225C20.4734 25.4026 20.3268 25.176 20.3002 25.1227C20.2202 24.9494 19.3272 23.5632 19.054 23.1767C18.9873 23.0767 18.9273 22.9834 18.9273 22.9635C18.9273 22.9501 18.7074 22.6036 18.4475 22.1971C18.1809 21.7905 17.8411 21.2707 17.7011 21.0441C17.5545 20.8109 17.2746 20.371 17.068 20.0578C16.8681 19.7446 16.5748 19.2781 16.4082 19.0249C16.2416 18.765 16.0284 18.4384 15.9351 18.2918C15.8351 18.1452 15.7351 17.9786 15.7085 17.9253C15.6818 17.8719 15.5152 17.5987 15.3353 17.3255C15.1487 17.0522 14.8754 16.6191 14.7155 16.3725C14.5556 16.1192 14.3756 15.8393 14.3156 15.7394C14.249 15.6394 14.1757 15.5128 14.149 15.4595C14.1224 15.4062 13.9758 15.1729 13.8158 14.9463C13.6559 14.7131 13.5293 14.5131 13.5293 14.4931C13.5293 14.4798 13.4559 14.3532 13.3626 14.2199C13.2693 14.0866 13.196 13.9467 13.196 13.92C13.196 13.8867 15.4619 13.86 18.2276 13.86H23.2525L23.9389 14.9996C24.3187 15.6194 24.6786 16.2125 24.7386 16.3125C24.8052 16.4125 24.8919 16.5524 24.9252 16.6257C25.0118 16.779 25.1451 17.0122 25.3117 17.2722C25.3717 17.3721 25.7382 17.9652 26.1248 18.5917C26.5113 19.2181 26.8712 19.8046 26.9245 19.8912C26.9778 19.9779 27.2444 20.4044 27.5109 20.8375C27.7775 21.2707 28.1907 21.9238 28.4306 22.2904C28.6639 22.6569 28.8771 23.0034 28.9038 23.0568C28.9304 23.1101 29.077 23.3433 29.237 23.5766C29.3969 23.8098 29.5236 24.0098 29.5236 24.0231C29.5236 24.0964 29.9434 24.6562 29.9967 24.6562C30.03 24.6562 30.09 24.5895 30.1233 24.5029C30.19 24.363 30.3099 24.1364 30.8697 23.1234C31.1963 22.5236 31.7228 21.524 33.029 19.0249C33.2622 18.585 34.0686 16.9923 34.8217 15.4861C36.0945 12.9537 36.2678 12.5272 36.0612 12.5272C36.0346 12.5272 35.8346 12.7738 35.6214 13.0737C35.4081 13.3802 35.1216 13.7734 34.9883 13.96C34.855 14.1399 34.6017 14.4931 34.4351 14.7464C34.2619 14.993 33.982 15.3995 33.8087 15.6461C33.0889 16.6857 32.3825 17.732 31.2696 19.4047C30.6232 20.3844 30.0567 21.1841 30.0234 21.1841C29.9834 21.1908 29.8301 20.9575 29.6835 20.6709C29.5369 20.391 29.2636 19.8712 29.077 19.5247C28.8904 19.1781 28.5972 18.6183 28.4239 18.2918C28.2507 17.9586 28.0174 17.5254 27.9108 17.3255C27.6309 16.8256 27.411 16.4191 26.9511 15.5594C26.7379 15.1529 26.5313 14.7797 26.4913 14.7131C26.458 14.6531 26.3513 14.4598 26.258 14.2799C26.1647 14.1066 26.0048 13.8134 25.9048 13.6268C25.7049 13.2936 25.4517 12.8204 25.0385 12.074C24.7453 11.5275 24.6253 11.3942 24.4387 11.3942C24.3521 11.3942 24.2654 11.4076 24.2521 11.4276Z" fill="#121212"/>
<path d="M57.0483 14.2558V22.4391H64.3006V23.4192H57.0483V42.383C57.0483 43.9184 57.326 44.9964 57.8813 45.6171C58.4367 46.2378 59.2044 46.5482 60.1844 46.5482C61.1645 46.5482 62.0138 46.1562 62.7325 45.3721C63.4512 44.5554 64.0719 43.1997 64.5946 41.3049L65.5746 41.55C65.248 43.4447 64.5946 45.0454 63.6146 46.3522C62.6672 47.6589 61.1971 48.3123 59.2044 48.3123C58.0937 48.3123 57.1789 48.1652 56.4602 47.8712C55.7416 47.6099 55.1045 47.2179 54.5492 46.6952C53.8305 45.9438 53.3241 45.0454 53.0301 44.0001C52.7688 42.9547 52.6381 41.5663 52.6381 39.8349V23.4192H47.9339V22.4391H52.6381V14.9418C53.4548 14.9091 54.2388 14.8438 54.9902 14.7458C55.7416 14.6478 56.4276 14.4844 57.0483 14.2558ZM78.8293 21.7041C79.7114 21.7041 80.4791 21.8838 81.1324 22.2431C81.8185 22.6025 82.3412 23.0762 82.7005 23.6642C83.0925 24.2195 83.2885 24.8566 83.2885 25.5753C83.2885 26.392 83.0272 27.1107 82.5045 27.7314C82.0145 28.352 81.3448 28.6624 80.4954 28.6624C79.8094 28.6624 79.205 28.4501 78.6823 28.0254C78.1596 27.568 77.8983 26.931 77.8983 26.1143C77.8983 25.4936 78.0616 24.9709 78.3883 24.5462C78.7477 24.0889 79.1397 23.7295 79.5644 23.4682C79.3357 23.1415 78.9927 22.9781 78.5353 22.9781C77.5226 22.9781 76.5916 23.2885 75.7422 23.9092C74.8928 24.4972 74.1741 25.2649 73.5861 26.2123C72.9981 27.1597 72.5407 28.1724 72.2141 29.2504C71.8874 30.2958 71.724 31.2758 71.724 32.1905V42.579C71.724 44.1797 72.1814 45.2578 73.0961 45.8131C74.0435 46.3358 75.3175 46.5972 76.9183 46.5972V47.6262C76.1669 47.5936 75.1052 47.5609 73.7331 47.5282C72.3611 47.4629 70.9073 47.4302 69.3719 47.4302C68.2612 47.4302 67.1505 47.4629 66.0398 47.5282C64.9617 47.5609 64.145 47.5936 63.5897 47.6262V46.5972C64.9291 46.5972 65.8764 46.3522 66.4318 45.8621C67.0198 45.3721 67.3138 44.4411 67.3138 43.069V27.7314C67.3138 26.2613 67.0525 25.1832 66.5298 24.4972C66.0071 23.7785 65.0271 23.4192 63.5897 23.4192V22.3901C64.6351 22.4881 65.6478 22.5371 66.6278 22.5371C67.5752 22.5371 68.4736 22.4881 69.3229 22.3901C70.205 22.2594 71.0053 22.0798 71.724 21.8511V27.9764C72.0834 27.029 72.5897 26.0816 73.2431 25.1342C73.9291 24.1542 74.7458 23.3375 75.6932 22.6841C76.6406 22.0308 77.686 21.7041 78.8293 21.7041ZM89.4291 47.9692C88.0897 47.9692 86.93 47.7242 85.95 47.2342C84.9699 46.7115 84.2186 45.9928 83.6959 45.0781C83.2058 44.1634 82.9608 43.1017 82.9608 41.893C82.9608 40.4556 83.2875 39.2795 83.9409 38.3648C84.6269 37.4501 85.4926 36.7151 86.538 36.1597C87.5834 35.6044 88.6777 35.147 89.8211 34.7877C90.9972 34.3956 92.1079 34.0363 93.1533 33.7096C94.1987 33.3503 95.048 32.9419 95.7014 32.4846C96.3874 32.0272 96.7304 31.4228 96.7304 30.6715V27.6334C96.7304 26.2613 96.5181 25.2159 96.0934 24.4972C95.7014 23.7785 95.1624 23.3048 94.4763 23.0762C93.7903 22.8148 93.0226 22.6841 92.1732 22.6841C91.3565 22.6841 90.4745 22.7985 89.5271 23.0272C88.6124 23.2558 87.8774 23.7295 87.322 24.4482C87.9427 24.5789 88.4817 24.9056 88.9391 25.4283C89.3964 25.9509 89.6251 26.6206 89.6251 27.4373C89.6251 28.254 89.3638 28.9074 88.8411 29.3974C88.3184 29.8548 87.6487 30.0835 86.832 30.0835C85.8846 30.0835 85.1823 29.7894 84.7249 29.2014C84.3002 28.5807 84.0879 27.8947 84.0879 27.1433C84.0879 26.294 84.3002 25.6079 84.7249 25.0852C85.1496 24.5626 85.6886 24.0725 86.342 23.6152C87.0933 23.0925 88.0571 22.6515 89.2331 22.2921C90.4418 21.9001 91.7975 21.7041 93.3003 21.7041C94.6397 21.7041 95.7831 21.8674 96.7304 22.1941C97.6778 22.4881 98.4618 22.9291 99.0825 23.5172C99.9319 24.3012 100.487 25.2649 100.749 26.4083C101.01 27.519 101.141 28.8584 101.141 30.4265V44.0491C101.141 44.8658 101.255 45.4538 101.484 45.8131C101.745 46.1725 102.137 46.3522 102.66 46.3522C103.019 46.3522 103.362 46.2705 103.689 46.1072C104.015 45.9438 104.407 45.6825 104.865 45.3231L105.404 46.1562C104.718 46.6788 104.064 47.1199 103.444 47.4792C102.823 47.8059 101.99 47.9692 100.945 47.9692C99.9972 47.9692 99.2132 47.8059 98.5925 47.4792C97.9718 47.1525 97.4981 46.6788 97.1714 46.0582C96.8774 45.4048 96.7304 44.5881 96.7304 43.608C95.8484 45.0781 94.7867 46.1725 93.5453 46.8912C92.3366 47.6099 90.9645 47.9692 89.4291 47.9692ZM91.1932 46.0092C92.2712 46.0092 93.2676 45.6988 94.1823 45.0781C95.1297 44.4574 95.9791 43.5264 96.7304 42.285V32.6806C96.3384 33.2359 95.7667 33.7096 95.0154 34.1016C94.264 34.461 93.4473 34.8367 92.5652 35.2287C91.6832 35.588 90.8338 36.029 90.0171 36.5517C89.2331 37.0418 88.5797 37.6951 88.0571 38.5118C87.5344 39.3285 87.273 40.3902 87.273 41.697C87.273 43.0037 87.616 44.0491 88.3021 44.8331C89.0208 45.6171 89.9845 46.0092 91.1932 46.0092ZM112.952 56.8386C111.221 56.8386 109.588 56.6589 108.052 56.2996C106.517 55.9402 105.275 55.3686 104.328 54.5845C103.413 53.8332 102.956 52.8694 102.956 51.6934C102.956 50.55 103.413 49.57 104.328 48.7533C105.243 47.9366 106.484 47.3159 108.052 46.8912L108.346 47.6752C107.628 47.9039 107.056 48.3613 106.631 49.0473C106.206 49.7333 105.994 50.501 105.994 51.3504C105.994 52.8531 106.68 53.9965 108.052 54.7805C109.457 55.5972 111.27 56.0056 113.491 56.0056C114.962 56.0056 116.399 55.8096 117.804 55.4176C119.208 55.0582 120.368 54.4375 121.283 53.5555C122.197 52.6734 122.655 51.5137 122.655 50.0763C122.655 48.9983 122.263 48.1162 121.479 47.4302C120.727 46.7115 119.225 46.3522 116.971 46.3522H113.344C112.299 46.3522 111.286 46.2705 110.306 46.1072C109.326 45.9438 108.526 45.6008 107.905 45.0781C107.285 44.5554 106.974 43.7551 106.974 42.677C106.974 41.5663 107.432 40.5046 108.346 39.4919C109.261 38.4465 110.943 37.3848 113.393 36.3067L113.981 36.7477C112.871 37.3358 111.907 37.9401 111.09 38.5608C110.274 39.1489 109.865 39.8512 109.865 40.6679C109.865 41.7133 110.649 42.236 112.217 42.236H118.343C119.715 42.236 120.972 42.432 122.116 42.824C123.292 43.216 124.239 43.8367 124.958 44.6861C125.677 45.5355 126.036 46.6462 126.036 48.0182C126.036 49.5536 125.546 50.991 124.566 52.3304C123.586 53.6698 122.116 54.7479 120.156 55.5646C118.228 56.4139 115.827 56.8386 112.952 56.8386ZM113.197 37.1888C111.597 37.1888 110.143 36.9274 108.836 36.4047C107.53 35.8494 106.5 35 105.749 33.8566C104.998 32.7132 104.622 31.2432 104.622 29.4464C104.622 27.6497 104.998 26.1796 105.749 25.0362C106.5 23.8929 107.53 23.0598 108.836 22.5371C110.143 21.9818 111.597 21.7041 113.197 21.7041C114.831 21.7041 116.285 21.9818 117.559 22.5371C118.865 23.0598 119.894 23.8929 120.646 25.0362C121.397 26.1796 121.773 27.6497 121.773 29.4464C121.773 31.2432 121.397 32.7132 120.646 33.8566C119.894 35 118.865 35.8494 117.559 36.4047C116.285 36.9274 114.831 37.1888 113.197 37.1888ZM113.197 36.3067C114.439 36.3067 115.403 35.8167 116.089 34.8367C116.807 33.8566 117.167 32.0599 117.167 29.4464C117.167 26.833 116.807 25.0362 116.089 24.0562C115.403 23.0762 114.439 22.5861 113.197 22.5861C111.989 22.5861 111.025 23.0762 110.306 24.0562C109.588 25.0362 109.228 26.833 109.228 29.4464C109.228 32.0599 109.588 33.8566 110.306 34.8367C111.025 35.8167 111.989 36.3067 113.197 36.3067ZM120.254 25.7713L119.372 25.4283C119.829 24.3175 120.613 23.3375 121.724 22.4881C122.835 21.6388 123.994 21.2141 125.203 21.2141C126.052 21.2141 126.738 21.4591 127.261 21.9491C127.784 22.4065 128.045 23.1088 128.045 24.0562C128.045 25.0689 127.767 25.7876 127.212 26.2123C126.689 26.6043 126.15 26.8003 125.595 26.8003C125.105 26.8003 124.648 26.637 124.223 26.3103C123.798 25.9509 123.553 25.3956 123.488 24.6442C123.423 23.8929 123.651 22.9291 124.174 21.7531L124.811 21.9001C123.439 22.4228 122.459 22.9781 121.871 23.5662C121.283 24.1215 120.744 24.8566 120.254 25.7713ZM130.315 47.6262V11.2666H133.794V47.6262H130.315ZM151.462 47.8712C148.783 47.8712 146.431 47.3159 144.406 46.2052C142.38 45.0618 140.796 43.51 139.652 41.55C138.509 39.5572 137.937 37.2868 137.937 34.7387C137.937 32.1905 138.476 29.9365 139.554 27.9764C140.665 26.0163 142.168 24.4809 144.063 23.3702C145.99 22.2268 148.146 21.6551 150.531 21.6551C152.948 21.6551 155.088 22.2104 156.95 23.3212C158.845 24.3992 160.331 25.9346 161.409 27.9274C162.487 29.8874 163.026 32.1579 163.026 34.7387C163.026 34.902 163.01 35.0817 162.977 35.2777C162.977 35.441 162.977 35.6207 162.977 35.8167H140.584V33.2196L161.115 33.2196L159.743 34.2486C159.743 32.3866 159.335 30.7368 158.518 29.2994C157.734 27.8294 156.656 26.686 155.284 25.8693C153.912 25.0526 152.328 24.6442 150.531 24.6442C148.767 24.6442 147.182 25.0526 145.778 25.8693C144.373 26.686 143.279 27.8294 142.495 29.2994C141.711 30.7695 141.319 32.4519 141.319 34.3466V34.8857C141.319 36.8458 141.743 38.5772 142.593 40.0799C143.475 41.55 144.683 42.7097 146.219 43.559C147.787 44.3757 149.567 44.7841 151.56 44.7841C153.128 44.7841 154.582 44.5064 155.921 43.9511C157.293 43.3957 158.469 42.5463 159.449 41.403L161.409 43.657C160.266 45.0291 158.829 46.0745 157.097 46.7932C155.398 47.5119 153.52 47.8712 151.462 47.8712ZM182.572 47.6262V41.942L182.425 41.0109V31.5045C182.425 29.3158 181.804 27.6334 180.563 26.4573C179.354 25.2812 177.541 24.6932 175.123 24.6932C173.457 24.6932 171.873 24.9709 170.37 25.5263C168.868 26.0816 167.594 26.8166 166.548 27.7314L164.98 25.1342C166.287 24.0235 167.855 23.1742 169.684 22.5861C171.514 21.9654 173.441 21.6551 175.467 21.6551C178.799 21.6551 181.363 22.4881 183.16 24.1542C184.989 25.7876 185.904 28.2867 185.904 31.6515V47.6262H182.572ZM173.702 47.8712C171.775 47.8712 170.093 47.5609 168.655 46.9402C167.25 46.2868 166.172 45.4048 165.421 44.2941C164.67 43.1507 164.294 41.844 164.294 40.3739C164.294 39.0345 164.604 37.8258 165.225 36.7477C165.878 35.637 166.924 34.755 168.361 34.1016C169.831 33.4156 171.791 33.0726 174.241 33.0726H183.111V35.6697H174.339C171.857 35.6697 170.125 36.1107 169.145 36.9928C168.198 37.8748 167.724 38.9692 167.724 40.2759C167.724 41.746 168.296 42.922 169.439 43.8041C170.583 44.6861 172.183 45.1271 174.241 45.1271C176.202 45.1271 177.884 44.6861 179.289 43.8041C180.726 42.8893 181.771 41.5826 182.425 39.8839L183.209 42.285C182.555 43.9837 181.412 45.3395 179.779 46.3522C178.178 47.3649 176.153 47.8712 173.702 47.8712ZM224.559 21.6551C226.65 21.6551 228.463 22.0634 229.998 22.8801C231.566 23.6642 232.775 24.8729 233.624 26.5063C234.506 28.1397 234.947 30.1978 234.947 32.6806V47.6262H231.468V33.0236C231.468 30.3121 230.815 28.2704 229.508 26.8983C228.234 25.4936 226.421 24.7912 224.069 24.7912C222.305 24.7912 220.769 25.1669 219.463 25.9183C218.189 26.637 217.192 27.6987 216.474 29.1034C215.788 30.4755 215.445 32.1415 215.445 34.1016V47.6262H211.965V33.0236C211.965 30.3121 211.312 28.2704 210.005 26.8983C208.699 25.4936 206.869 24.7912 204.517 24.7912C202.786 24.7912 201.267 25.1669 199.96 25.9183C198.653 26.637 197.64 27.6987 196.922 29.1034C196.236 30.4755 195.893 32.1415 195.893 34.1016V47.6262H192.414V21.9001H195.746V28.8584L195.207 27.6334C195.991 25.7713 197.248 24.3175 198.98 23.2722C200.744 22.1941 202.818 21.6551 205.203 21.6551C207.719 21.6551 209.858 22.2921 211.622 23.5662C213.387 24.8076 214.53 26.686 215.053 29.2014L213.681 28.6624C214.432 26.5716 215.755 24.8892 217.65 23.6152C219.577 22.3085 221.88 21.6551 224.559 21.6551Z" fill="#121212"/>
</svg>
